<svg xmlns="http://www.w3.org/2000/svg" xmlns:xlink="http://www.w3.org/1999/xlink" width="500" zoomAndPan="magnify" viewBox="0 0 375 374.999991" height="500" preserveAspectRatio="xMidYMid meet" version="1.0"><defs><g/><clipPath id="1ca696ae30"><path d="M 69 69 L 306 69 L 306 306 L 69 306 Z M 69 69 " clip-rule="nonzero"/></clipPath><clipPath id="c87b5cf1c5"><path d="M 97.394531 46.242188 L 328.757812 97.398438 L 277.601562 328.757812 L 46.242188 277.605469 Z M 97.394531 46.242188 " clip-rule="nonzero"/></clipPath><clipPath id="bfb42a5898"><path d="M 213.074219 71.820312 C 149.1875 57.695312 85.945312 98.035156 71.820312 161.921875 C 57.691406 225.8125 98.035156 289.054688 161.921875 303.179688 C 225.8125 317.308594 289.054688 276.964844 303.179688 213.078125 C 317.304688 149.1875 276.964844 85.945312 213.074219 71.820312 Z M 213.074219 71.820312 " clip-rule="nonzero"/></clipPath><clipPath id="f193656ece"><path d="M 76 74 L 299 74 L 299 301 L 76 301 Z M 76 74 " clip-rule="nonzero"/></clipPath><clipPath id="33358a9a34"><path d="M 302.644531 296.542969 L 80.789062 304.519531 L 72.652344 78.164062 L 294.507812 70.191406 Z M 302.644531 296.542969 " clip-rule="nonzero"/></clipPath><clipPath id="8cff29a9c3"><path d="M 302.644531 296.542969 L 80.789062 304.519531 L 72.652344 78.164062 L 294.507812 70.191406 Z M 302.644531 296.542969 " clip-rule="nonzero"/></clipPath><clipPath id="144bf3b089"><path d="M 82 82 L 293 82 L 293 293 L 82 293 Z M 82 82 " clip-rule="nonzero"/></clipPath><clipPath id="b03ce874e9"><path d="M 71.148438 279.058594 L 95.933594 71.140625 L 303.851562 95.925781 L 279.066406 303.84375 Z M 71.148438 279.058594 " clip-rule="nonzero"/></clipPath><clipPath id="734c5178b2"><path d="M 83.542969 175.097656 C 76.699219 232.511719 117.695312 284.605469 175.109375 291.449219 C 232.523438 298.292969 284.613281 257.296875 291.457031 199.882812 C 298.300781 142.46875 257.308594 90.378906 199.894531 83.535156 C 142.480469 76.691406 90.386719 117.683594 83.542969 175.097656 Z M 83.542969 175.097656 " clip-rule="nonzero"/></clipPath></defs><g clip-path="url(#1ca696ae30)"><g clip-path="url(#c87b5cf1c5)"><g clip-path="url(#bfb42a5898)"><path fill="#fdf9f7" d="M 97.394531 46.242188 L 328.757812 97.398438 L 277.601562 328.757812 L 46.242188 277.605469 Z M 97.394531 46.242188 " fill-opacity="1" fill-rule="nonzero"/></g></g></g><g clip-path="url(#f193656ece)"><g clip-path="url(#33358a9a34)"><g clip-path="url(#8cff29a9c3)"><path fill="#0b0019" d="M 298.128906 178.902344 C 299.089844 197.867188 295.035156 215.832031 287.089844 232.953125 C 282.824219 242.136719 277.335938 250.566406 270.839844 258.375 C 260.804688 270.445312 248.882812 280.140625 235.023438 287.457031 C 225 292.75 214.398438 296.519531 203.234375 298.445312 C 197.027344 299.515625 190.730469 300.5625 184.386719 300.230469 C 180.105469 300 175.816406 299.925781 171.527344 299.542969 C 159.558594 298.484375 148.339844 295.058594 137.535156 290.046875 C 129.515625 286.324219 122.214844 281.457031 115.363281 275.875 C 110.839844 272.1875 106.804688 268.039062 103 263.640625 C 101.945312 262.421875 101.816406 260.949219 102.785156 260.179688 C 104.015625 259.207031 105.183594 259.5 106.207031 260.59375 C 108.292969 262.820312 110.324219 265.085938 112.515625 267.214844 C 124.800781 279.171875 139.191406 287.441406 155.691406 292.039062 C 162.136719 293.832031 168.679688 294.996094 175.382812 295.425781 C 178.886719 295.648438 182.402344 295.894531 185.890625 295.890625 C 189.617188 295.890625 193.363281 295.363281 197.078125 294.875 C 204.289062 293.921875 211.359375 292.292969 218.21875 289.859375 C 229.867188 285.726562 240.585938 279.914062 250.285156 272.191406 C 255.902344 267.71875 261.175781 262.898438 265.855469 257.46875 C 274.460938 247.480469 281.203125 236.34375 286.023438 224.058594 C 288.90625 216.714844 290.980469 209.164062 292.292969 201.386719 C 292.824219 198.246094 293.082031 195.082031 293.453125 191.929688 C 294.390625 183.96875 294.179688 175.992188 292.996094 168.152344 C 291.335938 157.203125 288.277344 146.578125 283.382812 136.546875 C 279.554688 128.699219 274.910156 121.390625 269.269531 114.738281 C 262.628906 106.90625 254.992188 100.226562 246.28125 94.738281 C 234.96875 87.613281 222.773438 82.898438 209.613281 80.582031 C 200.882812 79.046875 192.082031 78.417969 183.28125 79.265625 C 167.277344 80.808594 152.167969 85.429688 138.222656 93.535156 C 129.152344 98.808594 120.984375 105.210938 113.636719 112.742188 C 103.285156 123.347656 95.433594 135.523438 89.75 149.140625 C 85.617188 159.046875 83.019531 169.390625 81.921875 180.058594 C 81.402344 185.105469 81.125 190.203125 81.34375 195.289062 C 81.863281 207.355469 83.964844 219.121094 88.386719 230.414062 C 88.664062 231.125 88.992188 231.828125 89.164062 232.5625 C 89.394531 233.527344 89.308594 234.617188 88.222656 234.882812 C 87.214844 235.128906 85.929688 235.792969 85.167969 234.234375 C 83.976562 231.800781 83.070312 229.25 82.269531 226.683594 C 80.261719 220.265625 78.589844 213.753906 77.84375 207.046875 C 77.058594 200.011719 76.5 192.921875 76.921875 185.871094 C 78.167969 165.007812 84.359375 145.65625 95.683594 128.023438 C 100.363281 120.746094 105.757812 114.003906 111.9375 107.960938 C 123.253906 96.894531 136.191406 88.242188 150.972656 82.414062 C 158.035156 79.632812 165.292969 77.574219 172.726562 76.160156 C 180.535156 74.671875 188.492188 74.265625 196.378906 74.558594 C 210.386719 75.082031 223.847656 78.367188 236.59375 84.285156 C 244.980469 88.175781 252.734375 93.097656 259.820312 99.066406 C 277.140625 113.652344 288.546875 131.996094 294.527344 153.753906 C 295.660156 157.863281 296.410156 162.089844 297.1875 166.285156 C 297.945312 170.445312 297.941406 174.683594 298.128906 178.902344 Z M 298.128906 178.902344 " fill-opacity="1" fill-rule="nonzero"/></g></g></g><g clip-path="url(#144bf3b089)"><g clip-path="url(#b03ce874e9)"><g clip-path="url(#734c5178b2)"><path fill="#0b0019" d="M 71.148438 279.058594 L 95.933594 71.140625 L 303.851562 95.925781 L 279.066406 303.84375 Z M 71.148438 279.058594 " fill-opacity="1" fill-rule="nonzero"/></g></g></g><g fill="#ffcc00" fill-opacity="1"><g transform="translate(123.038108, 192.84974)"><g><path d="M 15.265625 -1.8125 C 14.492188 -1.71875 13.421875 -1.769531 12.046875 -1.96875 C 10.679688 -2.175781 9.625 -3.421875 8.875 -5.703125 C 8.5 -7.140625 8.398438 -9.210938 8.578125 -11.921875 C 8.753906 -14.640625 9.019531 -17.601562 9.375 -20.8125 C 9.726562 -23.707031 10 -26.503906 10.1875 -29.203125 C 10.382812 -31.910156 10.335938 -34.492188 10.046875 -36.953125 L 7.390625 -36.65625 C 5.660156 -36.4375 3.914062 -36.085938 2.15625 -35.609375 C 0.40625 -35.140625 -0.847656 -34.492188 -1.609375 -33.671875 C -2.328125 -34.328125 -2.820312 -35.109375 -3.09375 -36.015625 C -3.132812 -36.148438 -3.207031 -36.5 -3.3125 -37.0625 C -3.425781 -37.632812 -3.25 -38.335938 -2.78125 -39.171875 C -2.3125 -40.003906 -1.6875 -40.671875 -0.90625 -41.171875 C 0.351562 -41.929688 2.421875 -42.488281 5.296875 -42.84375 C 8.265625 -43.21875 11.515625 -43.519531 15.046875 -43.75 C 18.585938 -43.988281 21.660156 -44.273438 24.265625 -44.609375 C 26.921875 -44.941406 28.75 -45.335938 29.75 -45.796875 C 29.851562 -45.566406 30.003906 -45.15625 30.203125 -44.5625 C 30.597656 -43.226562 30.488281 -41.875 29.875 -40.5 C 29.257812 -39.132812 27.769531 -38.191406 25.40625 -37.671875 L 24.484375 -37.515625 C 22.941406 -37.328125 20.269531 -37.222656 16.46875 -37.203125 C 17.851562 -36.160156 18.628906 -35.507812 18.796875 -35.25 C 18.890625 -35.039062 18.984375 -34.796875 19.078125 -34.515625 C 19.429688 -33.359375 19.5625 -31.679688 19.46875 -29.484375 C 19.375 -27.285156 19.144531 -24.664062 18.78125 -21.625 C 18.5 -19.175781 18.28125 -16.734375 18.125 -14.296875 C 17.976562 -11.867188 18.007812 -9.648438 18.21875 -7.640625 C 18.332031 -6.710938 18.488281 -5.859375 18.6875 -5.078125 C 19.007812 -4.097656 19.269531 -3.476562 19.46875 -3.21875 C 18.1875 -2.476562 16.785156 -2.007812 15.265625 -1.8125 Z M 15.265625 -1.8125 "/></g></g></g><g fill="#ffcc00" fill-opacity="1"><g transform="translate(159.86221, 188.2352)"><g><path d="M 13.09375 -6.515625 C 14.40625 -6.785156 15.53125 -7.503906 16.46875 -8.671875 C 17.40625 -9.847656 18.140625 -11.164062 18.671875 -12.625 C 19.203125 -14.082031 19.554688 -15.390625 19.734375 -16.546875 C 19.921875 -17.710938 19.984375 -18.914062 19.921875 -20.15625 C 19.859375 -21.394531 19.671875 -22.550781 19.359375 -23.625 C 18.984375 -24.738281 18.453125 -25.660156 17.765625 -26.390625 C 17.078125 -27.128906 16.179688 -27.429688 15.078125 -27.296875 C 13.710938 -27.046875 12.5625 -26.351562 11.625 -25.21875 C 10.6875 -24.082031 9.929688 -22.789062 9.359375 -21.34375 C 8.796875 -19.90625 8.425781 -18.609375 8.25 -17.453125 C 8.082031 -16.296875 8.035156 -15.101562 8.109375 -13.875 C 8.179688 -12.65625 8.375 -11.53125 8.6875 -10.5 L 8.984375 -9.59375 C 9.179688 -8.9375 9.632812 -8.222656 10.34375 -7.453125 C 11.050781 -6.679688 11.96875 -6.367188 13.09375 -6.515625 Z M 12.46875 -1.765625 L 11.828125 -1.6875 C 9.617188 -1.414062 7.59375 -1.734375 5.75 -2.640625 C 3.914062 -3.554688 2.425781 -5.015625 1.28125 -7.015625 C 0.769531 -7.867188 0.351562 -8.800781 0.03125 -9.8125 C -0.363281 -11.132812 -0.59375 -12.582031 -0.65625 -14.15625 C -0.738281 -16.957031 -0.140625 -19.632812 1.140625 -22.1875 C 2.421875 -24.738281 4.289062 -26.910156 6.75 -28.703125 C 9.207031 -30.503906 12.242188 -31.628906 15.859375 -32.078125 C 19.335938 -32.515625 22.28125 -31.613281 24.6875 -29.375 C 26.269531 -27.914062 27.394531 -26.085938 28.0625 -23.890625 C 29.113281 -20.484375 29.03125 -17.078125 27.8125 -13.671875 C 27.09375 -11.671875 26.03125 -9.832031 24.625 -8.15625 C 23.226562 -6.488281 21.5 -5.085938 19.4375 -3.953125 C 17.382812 -2.816406 15.0625 -2.085938 12.46875 -1.765625 Z M 12.46875 -1.765625 "/></g></g></g><g fill="#ffcc00" fill-opacity="1"><g transform="translate(190.785199, 184.360146)"><g><path d="M 27.296875 -3.421875 C 26.546875 -3.328125 25.488281 -3.378906 24.125 -3.578125 C 22.757812 -3.773438 21.6875 -5.03125 20.90625 -7.34375 C 20.707031 -7.96875 20.570312 -10.078125 20.5 -13.671875 C 18.59375 -9.085938 16.941406 -5.976562 15.546875 -4.34375 C 14.085938 -2.65625 12.394531 -1.691406 10.46875 -1.453125 C 8.382812 -1.191406 6.507812 -1.539062 4.84375 -2.5 C 3.1875 -3.457031 1.84375 -4.929688 0.8125 -6.921875 C 0.425781 -7.679688 0.109375 -8.476562 -0.140625 -9.3125 C -0.585938 -10.769531 -0.847656 -12.375 -0.921875 -14.125 C -0.984375 -16.90625 -0.460938 -19.5625 0.640625 -22.09375 C 1.753906 -24.625 3.347656 -26.765625 5.421875 -28.515625 C 7.492188 -30.273438 9.9375 -31.332031 12.75 -31.6875 C 14.445312 -31.90625 15.945312 -31.8125 17.25 -31.40625 C 18.5625 -31.007812 20.09375 -29.660156 21.84375 -27.359375 C 22.3125 -31.984375 22.597656 -35.722656 22.703125 -38.578125 C 22.804688 -41.441406 22.707031 -43.375 22.40625 -44.375 C 24.320312 -44.53125 26.144531 -44.414062 27.875 -44.03125 C 29.613281 -43.65625 30.707031 -43.113281 31.15625 -42.40625 C 31.238281 -42.21875 31.328125 -41.976562 31.421875 -41.6875 C 31.816406 -40.4375 31.953125 -38.484375 31.828125 -35.828125 C 31.710938 -33.179688 31.453125 -30.023438 31.046875 -26.359375 C 30.742188 -23.390625 30.5 -20.46875 30.3125 -17.59375 C 29.988281 -12.53125 30.179688 -8.832031 30.890625 -6.5 C 31.160156 -5.601562 31.375 -5.050781 31.53125 -4.84375 C 30.238281 -4.082031 28.828125 -3.609375 27.296875 -3.421875 Z M 13.34375 -8.671875 C 14.5625 -8.828125 15.644531 -9.660156 16.59375 -11.171875 C 17.539062 -12.691406 18.382812 -14.519531 19.125 -16.65625 C 19.875 -18.800781 20.515625 -21.066406 21.046875 -23.453125 C 21.046875 -23.960938 20.988281 -24.414062 20.875 -24.8125 C 20.613281 -25.601562 20.050781 -26.273438 19.1875 -26.828125 C 18.332031 -27.378906 17.066406 -27.550781 15.390625 -27.34375 C 13.710938 -27.082031 12.332031 -26.347656 11.25 -25.140625 C 10.164062 -23.941406 9.359375 -22.566406 8.828125 -21.015625 C 7.898438 -18.171875 7.828125 -15.460938 8.609375 -12.890625 C 8.609375 -12.828125 8.710938 -12.472656 8.921875 -11.828125 C 9.140625 -11.191406 9.640625 -10.46875 10.421875 -9.65625 C 11.203125 -8.851562 12.175781 -8.523438 13.34375 -8.671875 Z M 13.34375 -8.671875 "/></g></g></g><g fill="#ffcc00" fill-opacity="1"><g transform="translate(221.504696, 180.510593)"><g><path d="M 13.09375 -6.515625 C 14.40625 -6.785156 15.53125 -7.503906 16.46875 -8.671875 C 17.40625 -9.847656 18.140625 -11.164062 18.671875 -12.625 C 19.203125 -14.082031 19.554688 -15.390625 19.734375 -16.546875 C 19.921875 -17.710938 19.984375 -18.914062 19.921875 -20.15625 C 19.859375 -21.394531 19.671875 -22.550781 19.359375 -23.625 C 18.984375 -24.738281 18.453125 -25.660156 17.765625 -26.390625 C 17.078125 -27.128906 16.179688 -27.429688 15.078125 -27.296875 C 13.710938 -27.046875 12.5625 -26.351562 11.625 -25.21875 C 10.6875 -24.082031 9.929688 -22.789062 9.359375 -21.34375 C 8.796875 -19.90625 8.425781 -18.609375 8.25 -17.453125 C 8.082031 -16.296875 8.035156 -15.101562 8.109375 -13.875 C 8.179688 -12.65625 8.375 -11.53125 8.6875 -10.5 L 8.984375 -9.59375 C 9.179688 -8.9375 9.632812 -8.222656 10.34375 -7.453125 C 11.050781 -6.679688 11.96875 -6.367188 13.09375 -6.515625 Z M 12.46875 -1.765625 L 11.828125 -1.6875 C 9.617188 -1.414062 7.59375 -1.734375 5.75 -2.640625 C 3.914062 -3.554688 2.425781 -5.015625 1.28125 -7.015625 C 0.769531 -7.867188 0.351562 -8.800781 0.03125 -9.8125 C -0.363281 -11.132812 -0.59375 -12.582031 -0.65625 -14.15625 C -0.738281 -16.957031 -0.140625 -19.632812 1.140625 -22.1875 C 2.421875 -24.738281 4.289062 -26.910156 6.75 -28.703125 C 9.207031 -30.503906 12.242188 -31.628906 15.859375 -32.078125 C 19.335938 -32.515625 22.28125 -31.613281 24.6875 -29.375 C 26.269531 -27.914062 27.394531 -26.085938 28.0625 -23.890625 C 29.113281 -20.484375 29.03125 -17.078125 27.8125 -13.671875 C 27.09375 -11.671875 26.03125 -9.832031 24.625 -8.15625 C 23.226562 -6.488281 21.5 -5.085938 19.4375 -3.953125 C 17.382812 -2.816406 15.0625 -2.085938 12.46875 -1.765625 Z M 12.46875 -1.765625 "/></g></g></g><g fill="#ffcc00" fill-opacity="1"><g transform="translate(132.798984, 246.048912)"><g><path d="M 15.265625 -1.8125 C 14.492188 -1.71875 13.421875 -1.769531 12.046875 -1.96875 C 10.679688 -2.175781 9.625 -3.421875 8.875 -5.703125 C 8.5 -7.140625 8.398438 -9.210938 8.578125 -11.921875 C 8.753906 -14.640625 9.019531 -17.601562 9.375 -20.8125 C 9.726562 -23.707031 10 -26.503906 10.1875 -29.203125 C 10.382812 -31.910156 10.335938 -34.492188 10.046875 -36.953125 L 7.390625 -36.65625 C 5.660156 -36.4375 3.914062 -36.085938 2.15625 -35.609375 C 0.40625 -35.140625 -0.847656 -34.492188 -1.609375 -33.671875 C -2.328125 -34.328125 -2.820312 -35.109375 -3.09375 -36.015625 C -3.132812 -36.148438 -3.207031 -36.5 -3.3125 -37.0625 C -3.425781 -37.632812 -3.25 -38.335938 -2.78125 -39.171875 C -2.3125 -40.003906 -1.6875 -40.671875 -0.90625 -41.171875 C 0.351562 -41.929688 2.421875 -42.488281 5.296875 -42.84375 C 8.265625 -43.21875 11.515625 -43.519531 15.046875 -43.75 C 18.585938 -43.988281 21.660156 -44.273438 24.265625 -44.609375 C 26.921875 -44.941406 28.75 -45.335938 29.75 -45.796875 C 29.851562 -45.566406 30.003906 -45.15625 30.203125 -44.5625 C 30.597656 -43.226562 30.488281 -41.875 29.875 -40.5 C 29.257812 -39.132812 27.769531 -38.191406 25.40625 -37.671875 L 24.484375 -37.515625 C 22.941406 -37.328125 20.269531 -37.222656 16.46875 -37.203125 C 17.851562 -36.160156 18.628906 -35.507812 18.796875 -35.25 C 18.890625 -35.039062 18.984375 -34.796875 19.078125 -34.515625 C 19.429688 -33.359375 19.5625 -31.679688 19.46875 -29.484375 C 19.375 -27.285156 19.144531 -24.664062 18.78125 -21.625 C 18.5 -19.175781 18.28125 -16.734375 18.125 -14.296875 C 17.976562 -11.867188 18.007812 -9.648438 18.21875 -7.640625 C 18.332031 -6.710938 18.488281 -5.859375 18.6875 -5.078125 C 19.007812 -4.097656 19.269531 -3.476562 19.46875 -3.21875 C 18.1875 -2.476562 16.785156 -2.007812 15.265625 -1.8125 Z M 15.265625 -1.8125 "/></g></g></g><g fill="#ffcc00" fill-opacity="1"><g transform="translate(169.623085, 241.434371)"><g><path d="M 27.625 -3.46875 C 26.851562 -3.363281 25.785156 -3.410156 24.421875 -3.609375 C 23.054688 -3.816406 21.992188 -5.078125 21.234375 -7.390625 C 20.992188 -8.140625 20.804688 -10.164062 20.671875 -13.46875 C 18.804688 -9 17.195312 -5.957031 15.84375 -4.34375 C 14.382812 -2.6875 12.6875 -1.734375 10.75 -1.484375 C 8.675781 -1.222656 6.796875 -1.566406 5.109375 -2.515625 C 3.429688 -3.472656 2.097656 -4.957031 1.109375 -6.96875 C 0.722656 -7.71875 0.40625 -8.515625 0.15625 -9.359375 C -0.289062 -10.804688 -0.554688 -12.40625 -0.640625 -14.15625 C -0.691406 -16.9375 -0.164062 -19.59375 0.9375 -22.125 C 2.050781 -24.65625 3.644531 -26.800781 5.71875 -28.5625 C 7.789062 -30.320312 10.238281 -31.378906 13.0625 -31.734375 C 14.726562 -31.941406 16.203125 -31.851562 17.484375 -31.46875 C 18.765625 -31.09375 20.320312 -29.75 22.15625 -27.4375 C 22.164062 -30.414062 22.085938 -32.234375 21.921875 -32.890625 C 23.835938 -33.035156 25.664062 -32.921875 27.40625 -32.546875 C 29.15625 -32.179688 30.242188 -31.632812 30.671875 -30.90625 C 30.835938 -30.613281 30.96875 -30.289062 31.0625 -29.9375 C 31.394531 -28.894531 31.53125 -27.519531 31.46875 -25.8125 C 31.414062 -24.113281 31.238281 -22.097656 30.9375 -19.765625 C 30.519531 -16.859375 30.3125 -14.054688 30.3125 -11.359375 C 30.300781 -9.816406 30.488281 -8.410156 30.875 -7.140625 C 31.207031 -6.054688 31.53125 -5.300781 31.84375 -4.875 C 30.539062 -4.125 29.132812 -3.65625 27.625 -3.46875 Z M 13.65625 -8.703125 C 14.800781 -8.847656 15.859375 -9.628906 16.828125 -11.046875 C 17.796875 -12.472656 18.660156 -14.195312 19.421875 -16.21875 C 20.179688 -18.238281 20.796875 -20.375 21.265625 -22.625 C 21.367188 -23.488281 21.335938 -24.234375 21.171875 -24.859375 C 20.972656 -25.523438 20.476562 -26.171875 19.6875 -26.796875 C 18.90625 -27.421875 17.582031 -27.613281 15.71875 -27.375 C 14.019531 -27.125 12.625 -26.394531 11.53125 -25.1875 C 10.4375 -23.976562 9.625 -22.597656 9.09375 -21.046875 C 8.1875 -18.234375 8.125 -15.523438 8.90625 -12.921875 C 8.90625 -12.859375 9.007812 -12.503906 9.21875 -11.859375 C 9.425781 -11.222656 9.929688 -10.503906 10.734375 -9.703125 C 11.546875 -8.898438 12.519531 -8.566406 13.65625 -8.703125 Z M 13.65625 -8.703125 "/></g></g></g><g fill="#ffcc00" fill-opacity="1"><g transform="translate(202.755358, 237.282466)"><g><path d="M 11.484375 -1.34375 C 8.597656 -0.976562 6.054688 -1.050781 3.859375 -1.5625 C 1.953125 -2.019531 0.507812 -2.75 -0.46875 -3.75 C -0.925781 -4.207031 -1.238281 -4.707031 -1.40625 -5.25 C -1.601562 -5.863281 -1.628906 -6.550781 -1.484375 -7.3125 C -1.265625 -8.289062 -0.8125 -9.046875 -0.125 -9.578125 C 0.882812 -10.378906 2.144531 -10.875 3.65625 -11.0625 C 4 -11.101562 4.320312 -11.117188 4.625 -11.109375 C 4.9375 -11.097656 5.054688 -11.25 4.984375 -11.5625 C 5.085938 -10.851562 5.234375 -10.1875 5.421875 -9.5625 C 5.554688 -9.09375 5.8125 -8.460938 6.1875 -7.671875 C 6.570312 -6.878906 7.484375 -6.257812 8.921875 -5.8125 C 9.597656 -5.664062 10.191406 -5.625 10.703125 -5.6875 C 11.234375 -5.75 11.769531 -5.972656 12.3125 -6.359375 C 12.863281 -6.742188 13.285156 -7.296875 13.578125 -8.015625 C 13.773438 -8.640625 13.769531 -9.3125 13.5625 -10.03125 C 13.394531 -10.675781 12.898438 -11.3125 12.078125 -11.9375 C 11.253906 -12.570312 9.882812 -13.164062 7.96875 -13.71875 C 4.84375 -14.539062 2.535156 -15.882812 1.046875 -17.75 C 0.484375 -18.53125 0.0625 -19.328125 -0.21875 -20.140625 C -0.570312 -21.316406 -0.582031 -22.585938 -0.25 -23.953125 C 0.675781 -27.671875 4.578125 -30.175781 11.453125 -31.46875 L 12.859375 -31.671875 C 15.671875 -32.023438 17.929688 -31.796875 19.640625 -30.984375 C 20.929688 -30.378906 21.742188 -29.535156 22.078125 -28.453125 C 22.222656 -28.003906 22.273438 -27.5 22.234375 -26.9375 C 22.148438 -25.988281 21.84375 -25.242188 21.3125 -24.703125 C 20.394531 -23.734375 19.21875 -23.160156 17.78125 -22.984375 C 17.375 -22.929688 17.234375 -22.773438 17.359375 -22.515625 C 17.304688 -22.960938 17.210938 -23.4375 17.078125 -23.9375 C 16.847656 -24.675781 16.410156 -25.484375 15.765625 -26.359375 C 15.117188 -27.242188 13.78125 -27.640625 11.75 -27.546875 L 11.234375 -27.515625 C 9.378906 -27.285156 8.3125 -26.3125 8.03125 -24.59375 C 8.03125 -24.101562 8.082031 -23.671875 8.1875 -23.296875 C 8.476562 -22.347656 9.175781 -21.578125 10.28125 -20.984375 C 11.382812 -20.390625 12.570312 -19.9375 13.84375 -19.625 C 19.425781 -18 22.675781 -15.703125 23.59375 -12.734375 C 24.007812 -11.347656 23.863281 -9.867188 23.15625 -8.296875 C 21.289062 -4.398438 17.398438 -2.082031 11.484375 -1.34375 Z M 11.484375 -1.34375 "/></g></g></g><g fill="#ffcc00" fill-opacity="1"><g transform="translate(225.858647, 234.387322)"><g><path d="M 22.578125 -1.53125 C 21.179688 -1.351562 19.984375 -1.507812 18.984375 -2 C 17.128906 -3.144531 15.585938 -4.660156 14.359375 -6.546875 C 13.140625 -8.441406 12.113281 -10.296875 11.28125 -12.109375 L 9.328125 -16.15625 C 8.878906 -10.101562 8.960938 -6.03125 9.578125 -3.9375 C 9.878906 -3 10.125 -2.414062 10.3125 -2.1875 C 9.03125 -1.445312 7.628906 -0.984375 6.109375 -0.796875 C 5.335938 -0.703125 4.265625 -0.753906 2.890625 -0.953125 C 1.515625 -1.148438 0.445312 -2.394531 -0.3125 -4.6875 C -0.644531 -5.863281 -0.738281 -7.554688 -0.59375 -9.765625 C -0.445312 -11.972656 -0.191406 -14.515625 0.171875 -17.390625 C 0.710938 -21.484375 1.082031 -25.800781 1.28125 -30.34375 C 1.476562 -34.894531 1.15625 -38.882812 0.3125 -42.3125 C 1.425781 -42.414062 2.722656 -42.382812 4.203125 -42.21875 C 5.691406 -42.050781 6.910156 -41.78125 7.859375 -41.40625 C 8.804688 -41.03125 9.332031 -40.644531 9.4375 -40.25 C 10.238281 -37.570312 10.601562 -34.535156 10.53125 -31.140625 C 10.457031 -27.742188 10.128906 -23.617188 9.546875 -18.765625 C 12.453125 -21.234375 14.5 -23.429688 15.6875 -25.359375 C 16.875 -27.296875 17.953125 -29.519531 18.921875 -32.03125 C 19.734375 -31.84375 20.796875 -31.21875 22.109375 -30.15625 C 23.421875 -29.101562 24.382812 -27.890625 25 -26.515625 C 25.082031 -26.304688 25.15625 -26.125 25.21875 -25.96875 C 25.53125 -24.914062 25.359375 -23.914062 24.703125 -22.96875 C 23.003906 -20.570312 20.226562 -18.523438 16.375 -16.828125 C 17.675781 -14.160156 19.578125 -11.878906 22.078125 -9.984375 C 24.578125 -8.097656 27.160156 -6.972656 29.828125 -6.609375 C 29.941406 -5.734375 29.382812 -4.816406 28.15625 -3.859375 C 26.550781 -2.566406 24.691406 -1.789062 22.578125 -1.53125 Z M 22.578125 -1.53125 "/></g></g></g></svg>